<svg width="10" height="8" viewBox="0 0 10 8" fill="none" xmlns="http://www.w3.org/2000/svg">
<path fill-rule="evenodd" clip-rule="evenodd" d="M8.61872 4.37485H8.55255V4.05548C8.70957 3.96897 8.81596 3.8097 8.81596 3.62495C8.81596 1.62632 7.10426 0 5 0C2.89596 0 1.18404 1.62632 1.18404 3.62515C1.18404 3.8099 1.29043 3.96918 1.44723 4.05589V4.37525H1.38128C0.619787 4.37525 0 5.04793 0 5.87463V6.3753C0 7.2024 0.619787 7.87509 1.38149 7.87509H1.99638L2.05085 7.92683C2.10213 7.97554 2.16957 8 2.23681 8C2.30426 8 2.3717 7.97554 2.42298 7.92683C2.48362 7.86922 2.50426 7.7908 2.49319 7.71581C2.53872 7.65477 2.56596 7.58059 2.56596 7.50014V4.74979C2.56596 4.54261 2.38915 4.37485 2.17128 4.37485H1.97383V4.05548C2.13043 3.96897 2.23681 3.8097 2.23681 3.62495C2.23681 2.17752 3.47638 0.999924 5 0.999924C6.52362 0.999924 7.76298 2.17752 7.76298 3.62495C7.76298 3.8097 7.86936 3.96897 8.02596 4.05548V4.37485H7.82851C7.61085 4.37485 7.43383 4.54261 7.43383 4.74979V7.49973C7.43383 7.57998 7.46128 7.65456 7.5066 7.7152C7.49574 7.79019 7.51638 7.86841 7.57681 7.92622C7.6283 7.97494 7.69574 7.99939 7.76298 7.99939C7.83021 7.99939 7.89787 7.97494 7.94915 7.92622L8.00362 7.87448H8.61851C9.38021 7.87448 10 7.2018 10 6.37469V5.87423C10.0002 5.04793 9.38043 4.37485 8.61872 4.37485Z" fill="black"/>
</svg>
